# xmcd
#
# Track frame offsets: 
#        150
#        12550
#        25819
#        40596
#        55781
#        70552
#        82896
#        95456
#        111732
#        127427
#        142261
#        155509
#        168886
#        182208
#        195653
#        207233
#        221187
#        236559
#        250014
#        263804
#        278074
#        291015
#        303501
#        317733
#        332931
#        346821
#
# Disc length: 4789 seconds
#
# Revision: 5
# Processed by: cddbd v1.5.2PL0 Copyright (c) Steve Scherf et al.
# Submitted via: ExactAudioCopy v0.95b3
#
DISCID=8a12b31a
DTITLE=Carter Family - The Carter Family 1927-1934 [CDB)
DYEAR=2002
DGENRE=Country
TTITLE0=Don't Forget This Song
TTITLE1=Foggy Mountain Top
TTITLE2=Bring Back My Blue Eyed Boy To Me
TTITLE3=Diamonds In The Rough
TTITLE4=Engine 143
TTITLE5=The Homestead On The Farm
TTITLE6=The Cyclone Of Rye Cove
TTITLE7=Motherless Children
TTITLE8=When The Roses Bloom In Dixieland
TTITLE9=No Telephone In Heaven
TTITLE10=Western Hobo
TTITLE11=Carter's Blues
TTITLE12=Wabash Cannonball
TTITLE13=A Distant Land To Roam
TTITLE14=Jimmie Brown The Newsboy
TTITLE15=Kitty Waltz
TTITLE16=Fond Affection
TTITLE17=The Cannonball
TTITLE18=The Lover's Farewell
TTITLE19=There's Someone Awaiting For Me
TTITLE20=The Little Log Hut In The Lane
TTITLE21=When The Springtime Comes Again
TTITLE22=When The World's On Fire
TTITLE23=I Have An Aged Mother
TTITLE24=Dying Soldier
TTITLE25=Worried Man Blues
EXTD=Bear Family CD 15865 LK YEAR: 2001
EXTT0=15-FEB-1929, Camden
EXTT1=15-FEB-1929, Camden
EXTT2=15-FEB-1929, Camden
EXTT3=15-FEB-1929, Camden
EXTT4=15-FEB-1929, Camden
EXTT5=22-NOV-1929, Atlanta
EXTT6=22-NOV-1929, Atlanta
EXTT7=22-NOV-1929, Atlanta
EXTT8=24-NOV-1929, Atlanta
EXTT9=24-NOV-1929, Atlanta
EXTT10=24-NOV-1929, Atlanta
EXTT11=24-NOV-1929, Atlanta
EXTT12=24-NOV-1929, Atlanta
EXTT13=25-NOV-1929, Atlanta
EXTT14=25-NOV-1929, Atlanta
EXTT15=25-NOV-1929, Atlanta
EXTT16=25-NOV-1929, Atlanta
EXTT17=24-MAY-1930, Memphis
EXTT18=24-MAY-1930, Memphis
EXTT19=24-MAY-1930, Memphis
EXTT20=24-MAY-1930, Memphis
EXTT21=24-MAY-1930, Memphis
EXTT22=24-MAY-1930, Memphis
EXTT23=24-MAY-1930, Memphis
EXTT24=24-MAY-1930, Memphis
EXTT25=24-MAY-1930, Memphis
PLAYORDER=
